<?xml version="1.0" standalone="no"?>
<!DOCTYPE svg PUBLIC "-//W3C//DTD SVG 20010904//EN"
 "http://www.w3.org/TR/2001/REC-SVG-20010904/DTD/svg10.dtd">
<svg version="1.0" xmlns="http://www.w3.org/2000/svg"
 width="56.000000pt" height="53.000000pt" viewBox="0 0 56.000000 53.000000"
 preserveAspectRatio="xMidYMid meet">
<metadata>
Created by potrace 1.10, written by Peter Selinger 2001-2011
</metadata>
<g transform="translate(0.000000,53.000000) scale(0.100000,-0.100000)"
fill="#F02137" stroke="none">
<path d="M243 520 c-59 -12 -112 -42 -154 -87 -106 -111 -112 -255 -15 -348
83 -80 232 -104 332 -52 56 28 109 83 130 133 16 39 18 134 4 186 -33 119
-168 195 -297 168z m146 -71 c20 -11 52 -43 71 -70 28 -41 35 -62 38 -112 3
-52 0 -67 -20 -97 -54 -80 -175 -126 -266 -101 -26 6 -60 24 -76 39 -34 33
-65 96 -66 136 0 77 56 168 129 206 51 27 142 27 190 -1z"/>
<path d="M327 373 c-25 -24 17 -79 51 -69 46 15 32 76 -17 76 -15 0 -31 -3
-34 -7z"/>
<path d="M183 363 c-18 -7 -16 -48 1 -63 23 -19 61 -8 64 18 6 40 -26 61 -65
45z"/>
<path d="M341 224 c-27 -23 -37 -25 -79 -20 -97 12 -97 12 -100 -11 -8 -54
140 -71 207 -24 35 25 49 60 30 72 -20 13 -24 12 -58 -17z"/>
</g>
</svg>
