<svg version="1.1" baseProfile="basic" id="Layer_1" xmlns="http://www.w3.org/2000/svg" xmlns:xlink="http://www.w3.org/1999/xlink" x="0px" y="0px" viewBox="0 0 21.6 24.99" xml:space="preserve">
<g>
	<path fill="#000000" d="M21.6,7.01l-1.26,0.37c-1.07-3.66-2.95-5.74-6.21-5.74H9.88   C9.65,4.07,9.54,7.83,9.65,11.9l2.83-0.15c1.92,0,2.72-1.38,3.18-3.4h1.07v8.47h-1.07c-0.46-2.05-1.26-3.43-3.18-3.54l-2.83-0.04   c0,3.02,0.04,5.6,0.23,7.16c0.19,2.24,0.8,3.25,2.45,3.47l1.53,0.15v0.97H0v-0.97l1.15-0.15c1.61-0.22,2.26-1.23,2.45-3.47   c0.31-3.66,0.38-11.45,0-15.78C3.41,2.31,2.76,1.38,1.15,1.19L0,1.01V0h21.57L21.6,7.01z"/>
</g>
</svg>