<?xml version="1.0" standalone="no"?>
<!DOCTYPE svg PUBLIC "-//W3C//DTD SVG 20010904//EN"
 "http://www.w3.org/TR/2001/REC-SVG-20010904/DTD/svg10.dtd">
<svg version="1.0" xmlns="http://www.w3.org/2000/svg"
 width="234.000000pt" height="221.000000pt" viewBox="0 0 234.000000 221.000000"
 preserveAspectRatio="xMidYMid meet">
<metadata>
Created by potrace 1.15, written by Peter Selinger 2001-2017
</metadata>
<g transform="translate(0.000000,221.000000) scale(0.100000,-0.100000)"
fill="#F02137" stroke="none">
<path d="M1110 2189 c-363 -44 -677 -244 -896 -571 -128 -190 -183 -354 -191
-565 -9 -226 34 -379 159 -560 163 -236 458 -405 803 -460 118 -18 361 -13
465 11 234 53 456 189 624 384 76 86 140 186 170 262 64 162 74 547 20 770
-19 76 -78 208 -125 277 -78 115 -232 251 -369 326 -185 101 -451 152 -660
126z m295 -251 c82 -12 175 -45 236 -84 67 -41 229 -209 289 -298 106 -158
137 -260 147 -485 10 -224 -26 -312 -196 -482 -106 -105 -202 -170 -339 -229
-337 -144 -679 -120 -934 67 -100 73 -252 323 -292 479 -80 315 184 799 528
968 156 76 341 97 561 64z"/>
<path d="M1410 1580 c-98 -23 -107 -144 -18 -245 114 -130 308 -78 308 83 0
127 -130 199 -290 162z"/>
<path d="M783 1527 c-55 -20 -67 -40 -71 -117 -8 -129 54 -200 172 -200 64 0
104 17 135 56 28 36 29 143 2 194 -36 70 -146 100 -238 67z"/>
<path d="M1015 1006 c-137 -23 -286 -119 -336 -217 -26 -52 -19 -89 28 -134
53 -52 84 -53 168 -9 39 20 77 42 85 49 24 20 75 44 101 47 13 2 29 7 35 10
13 9 91 0 114 -12 10 -5 20 -7 23 -3 4 3 37 -4 74 -15 37 -12 93 -29 123 -38
30 -9 64 -18 75 -19 11 -2 46 -10 77 -20 68 -19 100 -9 129 40 23 39 23 71 0
120 -21 46 -46 70 -116 112 -51 30 -222 89 -231 80 -3 -3 -31 1 -62 8 -70 16
-194 16 -287 1z"/>
</g>
</svg>
