<?xml version="1.0" standalone="no"?>
<!DOCTYPE svg PUBLIC "-//W3C//DTD SVG 20010904//EN"
 "http://www.w3.org/TR/2001/REC-SVG-20010904/DTD/svg10.dtd">
<svg version="1.0" xmlns="http://www.w3.org/2000/svg"
 width="234.000000pt" height="221.000000pt" viewBox="0 0 234.000000 221.000000"
 preserveAspectRatio="xMidYMid meet">
<metadata>
Created by potrace 1.15, written by Peter Selinger 2001-2017
</metadata>
<g transform="translate(0.000000,221.000000) scale(0.100000,-0.100000)"
fill="#007bff" stroke="none">
<path d="M1110 2189 c-363 -44 -677 -244 -896 -571 -128 -190 -183 -354 -191
-565 -9 -226 34 -379 159 -560 163 -236 458 -405 803 -460 118 -18 361 -13
465 11 234 53 456 189 624 384 76 86 140 186 170 262 64 162 74 547 20 770
-19 76 -78 208 -125 277 -78 115 -232 251 -369 326 -185 101 -451 152 -660
126z m295 -251 c82 -12 175 -45 236 -84 67 -41 229 -209 289 -298 106 -158
137 -260 147 -485 10 -224 -26 -312 -196 -482 -106 -105 -202 -170 -339 -229
-337 -144 -679 -120 -934 67 -100 73 -252 323 -292 479 -80 315 184 799 528
968 156 76 341 97 561 64z"/>
<path d="M783 1527 c-55 -20 -67 -40 -71 -117 -8 -129 54 -200 172 -200 64 0
104 17 135 56 28 36 29 143 2 194 -36 70 -146 100 -238 67z"/>
<path d="M1406 1439 c-42 -10 -119 -67 -137 -101 -27 -51 36 -100 94 -73 34
15 69 36 77 46 10 11 109 10 130 -1 22 -12 100 -29 158 -35 28 -2 33 1 39 24
4 14 6 34 5 43 -1 25 -50 65 -102 84 -54 19 -209 27 -264 13z"/>
<path d="M1535 1028 c-11 -6 -56 -41 -100 -76 -138 -112 -161 -117 -460 -82
-93 11 -189 20 -211 20 -58 0 -85 -24 -91 -81 -12 -102 63 -164 242 -204 61
-14 107 -16 228 -12 165 6 231 19 334 68 150 71 266 238 223 319 -26 48 -118
75 -165 48z"/>
</g>
</svg>
