<?xml version="1.0" standalone="no"?>
<!DOCTYPE svg PUBLIC "-//W3C//DTD SVG 20010904//EN"
 "http://www.w3.org/TR/2001/REC-SVG-20010904/DTD/svg10.dtd">
<svg version="1.0" xmlns="http://www.w3.org/2000/svg"
 width="560.000000pt" height="560.000000pt" viewBox="0 0 560.000000 560.000000"
 preserveAspectRatio="xMidYMid meet">
<metadata>
Created by potrace 1.11, written by Peter Selinger 2001-2013
</metadata>
<g transform="translate(0.000000,560.000000) scale(0.100000,-0.100000)"
fill="#000000" stroke="none">
<path d="M2846 5403 c-1 -1 -43 -5 -92 -8 -49 -3 -101 -8 -114 -10 -14 -3 -43
-8 -65 -10 -22 -3 -51 -7 -65 -10 -14 -3 -36 -7 -50 -10 -95 -18 -138 -27
-160 -35 -14 -5 -70 -21 -125 -36 -55 -15 -104 -30 -110 -34 -5 -4 -46 -19
-90 -34 -90 -31 -298 -129 -390 -183 -155 -92 -390 -260 -457 -327 -10 -10
-18 -15 -18 -12 0 7 -248 -241 -300 -301 -52 -60 -109 -127 -130 -155 -8 -11
-27 -34 -41 -52 -14 -17 -41 -53 -60 -81 -19 -27 -37 -52 -40 -55 -18 -16
-149 -239 -202 -343 -74 -145 -167 -380 -192 -483 -3 -10 -16 -64 -29 -119
-27 -112 -38 -173 -52 -295 -14 -119 -8 -432 10 -540 3 -14 7 -41 10 -60 3
-19 8 -46 11 -60 3 -14 7 -34 9 -45 36 -192 152 -468 281 -672 116 -184 275
-367 446 -513 124 -107 129 -110 249 -191 126 -84 150 -99 288 -171 180 -94
515 -221 645 -244 17 -3 34 -7 39 -10 8 -5 24 -9 82 -20 16 -2 32 -7 35 -9 4
-2 27 -6 51 -10 25 -3 52 -8 60 -10 8 -2 33 -7 55 -10 23 -3 52 -8 65 -10 14
-3 52 -7 85 -10 33 -3 89 -8 125 -11 128 -12 502 -6 585 10 12 2 48 7 80 11
33 4 69 9 80 12 54 11 112 23 133 28 12 3 30 7 40 9 133 31 312 92 439 152 52
24 99 44 104 44 5 0 9 5 9 10 0 6 5 10 11 10 6 0 49 23 96 50 47 28 89 50 93
50 5 0 10 3 12 8 2 4 30 24 62 46 33 21 64 43 70 47 6 5 56 44 111 88 108 85
132 105 245 214 65 62 188 197 255 278 160 192 338 513 370 665 2 10 11 51 20
89 9 39 18 86 21 105 2 19 6 46 9 60 3 14 8 52 11 85 3 33 7 80 9 105 16 155
22 536 11 685 -7 95 -16 197 -20 240 -4 37 -6 53 -21 140 -3 17 -8 46 -11 65
-24 154 -105 383 -197 560 -36 69 -144 248 -157 260 -3 3 -25 32 -50 65 -25
33 -56 73 -70 90 -43 53 -278 285 -289 285 -5 0 -11 4 -13 8 -1 5 -37 34 -78
65 -41 32 -80 61 -85 65 -79 64 -323 200 -477 266 -21 9 -53 22 -70 30 -18 8
-51 20 -73 27 -22 7 -44 17 -50 21 -5 4 -18 8 -30 8 -12 0 -26 5 -33 12 -7 7
-12 9 -12 6 0 -3 -28 3 -62 13 -71 22 -131 36 -186 45 -20 3 -40 8 -43 10 -14
8 -182 30 -309 40 -82 7 -299 11 -304 7z m384 -566 c14 -3 45 -8 70 -11 209
-26 488 -117 597 -194 17 -12 35 -22 40 -22 11 0 113 -79 205 -160 85 -74 246
-243 334 -350 16 -19 34 -39 41 -43 7 -4 13 -13 13 -18 0 -6 20 -35 44 -65 25
-30 48 -63 51 -74 4 -11 11 -20 16 -20 5 0 9 -5 9 -12 0 -6 11 -25 23 -42 13
-17 37 -53 52 -81 81 -144 105 -189 105 -199 0 -7 4 -16 9 -21 5 -6 24 -53 41
-105 32 -94 37 -111 46 -160 2 -14 7 -36 10 -50 7 -26 9 -38 19 -125 3 -27 8
-62 10 -77 17 -92 26 -593 12 -686 -18 -130 -51 -223 -119 -346 -40 -71 -131
-205 -171 -254 -127 -151 -272 -290 -417 -398 -102 -75 -125 -90 -225 -150
-92 -56 -275 -149 -370 -189 -41 -17 -214 -81 -227 -84 -4 -1 -13 -4 -20 -6
-64 -23 -299 -78 -383 -90 -23 -3 -52 -8 -65 -10 -126 -25 -535 -24 -655 1
-11 3 -34 7 -51 9 -92 13 -302 76 -419 126 -16 7 -32 13 -35 14 -15 3 -184 92
-235 123 -136 82 -216 148 -310 253 -58 65 -145 178 -145 188 0 6 -4 11 -10
11 -5 0 -10 7 -10 15 0 8 -4 15 -9 15 -5 0 -14 14 -21 30 -7 17 -16 30 -20 30
-4 0 -11 8 -14 18 -7 20 -27 54 -43 73 -6 8 -34 61 -63 119 -28 58 -60 122
-71 142 -11 21 -17 38 -13 38 3 0 1 7 -7 16 -16 19 -41 88 -84 231 -53 176
-65 257 -58 418 7 193 7 195 14 195 3 0 6 10 6 23 1 19 9 67 18 102 8 38 18
72 22 85 3 8 7 20 8 25 33 141 153 429 242 580 78 132 201 308 294 420 74 90
270 278 358 345 18 14 38 30 44 36 56 50 397 246 397 227 0 -3 6 -1 13 5 19
16 201 69 307 91 107 21 159 29 245 37 33 3 61 7 64 9 5 6 458 -2 491 -8z"/>
<path d="M3417 3934 c-75 -14 -130 -34 -152 -58 -73 -80 -88 -185 -46 -308 20
-57 91 -175 128 -213 121 -122 243 -181 365 -177 42 2 146 38 166 59 7 7 18
13 25 13 20 0 100 95 126 150 34 74 38 180 9 265 -19 59 -68 135 -105 165 -72
59 -135 92 -198 106 -57 13 -240 11 -318 -2z"/>
<path d="M2020 3829 c-145 -23 -211 -50 -254 -103 -33 -41 -42 -61 -54 -126
-8 -45 -7 -143 1 -197 12 -79 72 -203 117 -241 166 -142 414 -142 562 0 65 62
90 129 91 242 0 50 -2 102 -5 116 -3 14 -9 39 -14 55 -11 45 -65 126 -110 163
-61 51 -62 52 -78 52 -8 0 -17 4 -20 8 -13 22 -167 42 -236 31z"/>
<path d="M3722 2620 c-71 -32 -98 -53 -407 -307 -76 -63 -205 -124 -292 -138
-70 -11 -224 -7 -357 10 -28 3 -67 8 -86 10 -19 3 -75 9 -125 16 -123 15 -142
17 -205 24 -30 3 -68 7 -85 9 -97 13 -215 21 -320 21 -107 0 -124 -2 -156 -23
-39 -24 -44 -33 -63 -127 -15 -75 -4 -154 28 -209 27 -45 114 -136 131 -136 6
0 20 -8 31 -18 52 -46 278 -128 405 -147 24 -4 46 -8 49 -10 3 -2 34 -6 70 -9
36 -4 83 -9 105 -12 53 -8 336 -7 405 0 124 13 160 18 260 38 168 32 405 115
483 170 15 11 27 17 27 13 0 -3 35 20 78 51 271 201 420 457 363 626 -15 44
-69 94 -145 132 -70 36 -138 41 -194 16z"/>
</g>
</svg>
